<svg width="40" height="40" viewBox="0 0 40 40" fill="none" xmlns="http://www.w3.org/2000/svg">
<path d="M9.08887 34.3684C10.4705 31.1434 11.3289 29.8367 15.6755 26.9609C16.8364 23.7667 19.0389 22.0092 20.9205 20.5342C21.8072 17.0109 21.9289 13.2559 21.2405 11.7325C21.0655 12.7209 19.6955 13.955 18.0489 14.8134C18.758 16.5009 19.9922 18.0317 21.3139 18.6859" stroke="#111111" stroke-linecap="round" stroke-linejoin="round"/>
<path d="M29.2228 34.5683C28.5686 30.7649 27.8478 28.2824 30.4903 26.2799C27.0469 26.8008 24.7244 23.3574 24.7244 23.3574C21.5619 25.1591 19.3994 27.3208 17.1578 28.4024C13.7136 32.8066 12.5328 32.5266 9.08943 34.3683M9.08943 34.3683C9.08943 34.3683 9.38943 35.5891 9.29609 36.2499H6.93359C7.68776 35.6691 8.56859 35.4691 9.08943 34.3683ZM21.3144 18.6858C19.4728 18.3791 17.2103 16.9908 16.1161 15.5899M29.1278 11.1133C29.5686 14.8908 26.7403 16.4166 27.0069 19.6199" stroke="#111111" stroke-linecap="round" stroke-linejoin="round"/>
<path d="M26.1787 8.22167C25.837 8.55833 25.4795 8.785 24.7962 8.785C24.1129 8.785 23.967 7.25167 23.9829 6.46833C23.9987 5.685 24.0929 3.76833 26.2037 3.75C27.6079 3.7375 27.9679 4.67833 27.8279 6.4C27.6879 8.12167 27.6337 8.94083 28.1279 9.54333C29.3695 9.29 30.0904 9.87667 30.6237 10.6517C31.157 11.4267 31.7054 13.36 32.9737 15.0292C33.0929 18.4325 32.132 20.1675 29.8095 21.5292C31.1445 20.2742 31.5045 17.565 31.3312 15.8958C31.3312 15.8958 29.142 14.2283 29.1137 13.0833M27.007 19.62C29.4895 21.075 30.8812 22.6367 32.9829 24.7983C33.6437 28.1217 30.2237 28.015 29.2229 34.5683M29.2229 34.5683C30.0504 35.1292 30.717 36.0233 32.452 36.25H27.9687C27.8612 35.3825 29.2229 34.5683 29.2229 34.5683ZM23.3637 9.55833C23.3637 9.55833 21.9262 9.98333 21.2529 10.2642C19.2695 11.0908 17.4512 12.5733 16.1162 15.5892" stroke="#111111" stroke-linecap="round" stroke-linejoin="round"/>
</svg>
