<svg width="40" height="40" viewBox="0 0 40 40" fill="none" xmlns="http://www.w3.org/2000/svg">
<path d="M20.0001 17.3975C21.3366 17.3975 22.4201 16.314 22.4201 14.9775C22.4201 13.641 21.3366 12.5575 20.0001 12.5575C18.6635 12.5575 17.5801 13.641 17.5801 14.9775C17.5801 16.314 18.6635 17.3975 20.0001 17.3975Z" stroke="#2C3552" stroke-linecap="round" stroke-linejoin="round"/>
<path d="M16.0978 34.815L20.0003 25.9233M20.0003 25.9233L23.9028 34.815M20.0003 25.9233V20.2983M27.1512 12.8875L20.0003 20.3L12.8495 12.8883M10.7045 11.2967H29.3445M30.592 7.25V15.3442M9.51949 7.25V15.3442M31.832 7.25V15.3442M33.0712 9.0625V13.5308M8.28033 7.25V15.3442M7.04199 9.0625V13.5308" stroke="white" stroke-linecap="round" stroke-linejoin="round"/>
</svg>
