<svg width="36" height="35" viewBox="0 0 36 35" fill="none" xmlns="http://www.w3.org/2000/svg">
<g id="foundation:social-apple">
<g id="Group">
<path id="Vector" fill-rule="evenodd" clip-rule="evenodd" d="M29.2164 12.8943C27.773 11.0957 25.748 10.0551 23.8363 10.0551C21.3072 10.0551 20.2386 11.2567 18.484 11.2567C16.6756 11.2567 15.3004 10.0569 13.1129 10.0569C10.9643 10.0569 8.67985 11.362 7.23155 13.5926C5.1935 16.7293 5.5386 22.631 8.8433 27.6601C10.0252 29.4584 11.6037 31.4807 13.6677 31.5C15.502 31.5168 16.0211 30.3299 18.5099 30.3159C20.9991 30.3023 21.4699 31.5129 23.3039 31.4958C25.3678 31.4762 27.0331 29.2369 28.2144 27.4382C29.061 26.1499 29.3764 25.4989 30.0341 24.0425C25.2562 22.2372 24.4879 15.4861 29.2164 12.8943Z" fill="#1E1E1E"/>
<path id="Vector_2" fill-rule="evenodd" clip-rule="evenodd" d="M21.9179 8.0458C22.8367 6.867 23.5345 5.2017 23.2811 3.5C21.7803 3.6036 20.0247 4.55805 18.9999 5.803C18.0696 6.9328 17.3014 8.60825 17.6003 10.2368C19.2387 10.2875 20.9341 9.3086 21.9179 8.0458Z" fill="#1E1E1E"/>
</g>
</g>
</svg>
