<svg width="40" height="40" viewBox="0 0 40 40" fill="none" xmlns="http://www.w3.org/2000/svg">
<circle cx="20" cy="20" r="20" fill="url(#paint0_linear_234_365)"/>
<g clip-path="url(#clip0_234_365)">
<path d="M19.9805 10.0781C22.6758 10.0781 23.0078 10.0977 24.0625 10.1367C25.0977 10.1758 25.8203 10.3516 26.4648 10.6055C27.1289 10.8594 27.6758 11.1914 28.2227 11.7383C28.7695 12.2852 29.1016 12.832 29.3555 13.4961C29.6094 14.1406 29.7852 14.8633 29.8242 15.8984C29.8633 16.9531 29.8828 17.2852 29.8828 19.9805C29.8828 22.6758 29.8633 23.0078 29.8242 24.0625C29.7852 25.0977 29.6094 25.8203 29.3555 26.4648C29.1016 27.1289 28.7695 27.6758 28.2227 28.2227C27.6758 28.7695 27.1289 29.1016 26.4648 29.3555C25.8203 29.6094 25.0977 29.7852 24.0625 29.8242C23.0078 29.8633 22.6758 29.8828 19.9805 29.8828C17.2852 29.8828 16.9531 29.8633 15.8984 29.8242C14.8633 29.7852 14.1406 29.6094 13.4961 29.3555C12.832 29.1016 12.2852 28.7695 11.7383 28.2227C11.1914 27.6758 10.8594 27.1289 10.6055 26.4648C10.3516 25.8203 10.1758 25.0977 10.1367 24.0625C10.0977 23.0078 10.0781 22.6758 10.0781 19.9805C10.0781 17.2852 10.0977 16.9531 10.1367 15.8984C10.1758 14.8633 10.3516 14.1406 10.6055 13.4961C10.8594 12.832 11.1914 12.2852 11.7383 11.7383C12.2852 11.1914 12.832 10.8594 13.4961 10.6055C14.1406 10.3516 14.8633 10.1758 15.8984 10.1367C16.9531 10.0977 17.2852 10.0781 19.9805 10.0781ZM19.9805 11.3672C17.168 11.3672 16.8359 11.3867 15.7422 11.4258C14.7266 11.4648 14.1602 11.6602 13.7891 11.7969C12.832 12.1875 12.1875 12.832 11.7969 13.7891C11.6602 14.1602 11.4648 14.7266 11.4258 15.7422C11.3867 16.8359 11.3672 17.168 11.3672 19.9805C11.3672 22.793 11.3867 23.125 11.4258 24.2188C11.4648 25.2344 11.6602 25.8008 11.7969 26.1719C12.1875 27.1289 12.832 27.7734 13.7891 28.1641C14.1602 28.3008 14.7266 28.4961 15.7422 28.5352C16.8359 28.5742 17.168 28.5938 19.9805 28.5938C22.793 28.5938 23.125 28.5742 24.2188 28.5352C25.2344 28.4961 25.8008 28.3008 26.1719 28.1641C27.1289 27.7734 27.7734 27.1289 28.1641 26.1719C28.3008 25.8008 28.4961 25.2344 28.5352 24.2188C28.5742 23.125 28.5938 22.793 28.5938 19.9805C28.5938 17.168 28.5742 16.8359 28.5352 15.7422C28.4961 14.7266 28.3008 14.1602 28.1641 13.7891C27.7734 12.832 27.1289 12.1875 26.1719 11.7969C25.8008 11.6602 25.2344 11.4648 24.2188 11.4258C23.125 11.3867 22.793 11.3672 19.9805 11.3672ZM19.9805 23.9453C22.168 23.9453 23.9453 22.168 23.9453 19.9805C23.9453 17.793 22.168 16.0156 19.9805 16.0156C17.793 16.0156 16.0156 17.793 16.0156 19.9805C16.0156 22.168 17.793 23.9453 19.9805 23.9453ZM19.9805 14.9023C22.793 14.9023 25.0586 17.168 25.0586 19.9805C25.0586 22.793 22.793 25.0586 19.9805 25.0586C17.168 25.0586 14.9023 22.793 14.9023 19.9805C14.9023 17.168 17.168 14.9023 19.9805 14.9023ZM26.4648 14.707C26.4648 15.3711 25.918 15.8789 25.2539 15.8789C24.5898 15.8789 24.082 15.3711 24.082 14.707C24.082 14.043 24.5898 13.4961 25.2539 13.4961C25.918 13.4961 26.4648 14.043 26.4648 14.707Z" fill="#00376B"/>
</g>
<defs>
<linearGradient id="paint0_linear_234_365" x1="4.5" y1="4.23938e-07" x2="20" y2="40" gradientUnits="userSpaceOnUse">
<stop stop-color="#30F1E1"/>
<stop offset="1" stop-color="white"/>
</linearGradient>
<clipPath id="clip0_234_365">
<rect width="20" height="20" fill="white" transform="translate(10 10)"/>
</clipPath>
</defs>
</svg>
