<svg width="30" height="30" viewBox="0 0 30 30" fill="none" xmlns="http://www.w3.org/2000/svg">
<g id="Group">
<path id="Shape" fill-rule="evenodd" clip-rule="evenodd" d="M29.9 15.3409C29.9 14.2773 29.8045 13.2546 29.6273 12.2727H15.5V18.075H23.5727C23.225 19.95 22.1682 21.5386 20.5795 22.6023V26.3659H25.4273C28.2636 23.7546 29.9 19.9091 29.9 15.3409Z" fill="#4285F4"/>
<path id="Shape_2" fill-rule="evenodd" clip-rule="evenodd" d="M15.5 30C19.55 30 22.9455 28.6568 25.4273 26.3659L20.5796 22.6022C19.2364 23.5022 17.5182 24.0341 15.5 24.0341C11.5932 24.0341 8.28637 21.3954 7.10682 17.85H2.09546V21.7363C4.56364 26.6386 9.63637 30 15.5 30Z" fill="#34A853"/>
<path id="Shape_3" fill-rule="evenodd" clip-rule="evenodd" d="M7.10682 17.85C6.80682 16.95 6.63636 15.9886 6.63636 15C6.63636 14.0114 6.80682 13.05 7.10682 12.15V8.26364H2.09545C1.07955 10.2886 0.5 12.5796 0.5 15C0.5 17.4205 1.07955 19.7114 2.09545 21.7364L7.10682 17.85Z" fill="#FBBC05"/>
<path id="Shape_4" fill-rule="evenodd" clip-rule="evenodd" d="M15.5 5.96591C17.7023 5.96591 19.6795 6.72273 21.2341 8.20909L25.5364 3.90682C22.9386 1.48636 19.5432 0 15.5 0C9.63637 0 4.56364 3.36136 2.09546 8.26364L7.10682 12.15C8.28637 8.60455 11.5932 5.96591 15.5 5.96591Z" fill="#EA4335"/>
</g>
</svg>
