<svg width="40" height="40" viewBox="0 0 40 40" fill="none" xmlns="http://www.w3.org/2000/svg">
<circle cx="20" cy="20" r="20" fill="url(#paint0_linear_234_368)"/>
<path d="M17.3875 14.1667C18.0131 14.1667 18.5878 14.3359 19.1117 14.6742C19.3822 14.6076 19.7036 14.574 20.0758 14.5734C21.6142 14.5734 22.9244 15.1312 24.0067 16.2467C25.0889 17.3623 25.63 18.7151 25.63 20.3051C25.63 20.6934 25.5878 21.0992 25.5033 21.5226C25.7233 22.0137 25.8333 22.512 25.8333 23.0176C25.8333 23.932 25.5161 24.714 24.8817 25.3634C24.2483 26.0145 23.4914 26.3404 22.6108 26.3409C22.0772 26.3392 21.5532 26.1991 21.09 25.9342C20.6511 26.002 20.3131 26.0359 20.0758 26.0359C18.5369 26.0359 17.2222 25.4779 16.1317 24.3617C14.4958 22.6876 14.4958 21.8934 14.4958 20.3051C14.4958 19.9329 14.5381 19.5523 14.6225 19.1634C14.3172 18.6497 14.1595 18.0618 14.1667 17.4642C14.1667 16.5509 14.4794 15.7734 15.105 15.1317C15.7306 14.4884 16.4914 14.1667 17.3875 14.1667ZM20 22.9417C19.6628 22.9417 19.3919 22.8909 19.1875 22.7892C18.9686 22.6709 18.8167 22.5529 18.7317 22.4351C18.5289 22.0623 18.4189 21.8679 18.4017 21.8517C18.3426 21.6608 18.2386 21.4867 18.0983 21.3442C17.9512 21.2341 17.7737 21.1721 17.59 21.1667C17.4823 21.1631 17.3751 21.1815 17.2748 21.2208C17.1745 21.26 17.0833 21.3193 17.0067 21.3951C16.934 21.4634 16.8763 21.5459 16.837 21.6375C16.7977 21.7291 16.7777 21.8279 16.7783 21.9276C16.7789 22.2487 16.8978 22.5954 17.135 22.9676C17.3544 23.3059 17.6589 23.5845 18.0483 23.8034C18.5883 24.0917 19.2561 24.2359 20.0517 24.2359C20.71 24.2359 21.2933 24.1345 21.8017 23.9317C22.3089 23.6951 22.6808 23.3992 22.9175 23.0442C23.1708 22.6548 23.2975 22.232 23.2975 21.7759C23.2975 21.4048 23.2303 21.0667 23.0958 20.7617C22.9603 20.5079 22.7486 20.2801 22.4608 20.0784C22.1569 19.8923 21.834 19.7392 21.4975 19.6217C21.0956 19.4978 20.6895 19.3877 20.28 19.2917C20.1307 19.2687 19.9825 19.239 19.8358 19.2026L19.4942 19.1142C19.3451 19.0689 19.2006 19.0098 19.0625 18.9376C18.9308 18.8733 18.8173 18.7771 18.7325 18.6576C18.6898 18.6143 18.6565 18.5626 18.6347 18.5058C18.6129 18.449 18.6031 18.3883 18.6058 18.3276C18.6058 18.1254 18.7242 17.9479 18.9608 17.7951C19.1808 17.6256 19.5019 17.5409 19.9242 17.5409C20.3475 17.5409 20.6606 17.6167 20.8633 17.7684C21.0828 17.9556 21.2431 18.1673 21.3442 18.4034C21.4803 18.6234 21.5903 18.7754 21.6742 18.8592C21.8131 18.9627 21.9827 19.0167 22.1558 19.0126C22.2653 19.0126 22.3736 18.99 22.4738 18.9461C22.5741 18.9022 22.6641 18.838 22.7383 18.7576C22.813 18.6856 22.8719 18.5988 22.9114 18.5029C22.9508 18.4069 22.9699 18.3038 22.9675 18.2001C22.9675 18.0312 22.9081 17.8115 22.7892 17.5409C22.637 17.3176 22.4581 17.1136 22.2567 16.9334C22.02 16.7467 21.7069 16.5859 21.3175 16.4509C20.8971 16.3303 20.4615 16.2706 20.0242 16.2734C19.4158 16.2729 18.8747 16.3659 18.4008 16.5526C17.9286 16.7198 17.5656 16.9729 17.3117 17.3117C17.0586 17.6475 16.9246 18.058 16.9308 18.4784C16.9308 18.9173 17.0492 19.2979 17.2858 19.6201C17.5736 19.9573 17.8947 20.1937 18.2492 20.3292C18.6553 20.5159 19.1458 20.6681 19.7208 20.7859C19.8225 20.8031 19.945 20.8326 20.0883 20.8742L20.4692 20.9767L20.735 21.0392C20.9717 21.1242 21.1658 21.2429 21.3175 21.3951C21.4697 21.5123 21.5458 21.6898 21.5458 21.9276C21.5458 22.2154 21.4108 22.4523 21.1408 22.6384C20.8375 22.8406 20.4572 22.9417 20 22.9417ZM17.3875 12.5001C16.0467 12.5001 14.8433 13.0084 13.9092 13.9709C12.9883 14.9159 12.5 16.1251 12.5 17.4642C12.5 18.1576 12.63 18.8134 12.8883 19.4209C12.8493 19.7143 12.8298 20.0099 12.83 20.3059C12.83 22.3376 13.5408 24.0951 14.94 25.5284C16.3508 26.9717 18.08 27.7034 20.0767 27.7034C20.2883 27.7034 20.5325 27.6867 20.8233 27.6534C21.3983 27.8892 21.9975 28.0084 22.6117 28.0084C23.935 28.0084 25.1325 27.4967 26.0758 26.5276C26.5334 26.0658 26.8949 25.518 27.1393 24.9156C27.3838 24.3133 27.5064 23.6684 27.5 23.0184C27.5 22.4542 27.4075 21.8942 27.2233 21.3484C27.2723 21.0031 27.297 20.6547 27.2975 20.3059C27.2975 18.2751 26.5925 16.5192 25.2033 15.0867C23.7992 13.6409 22.0742 12.9076 20.0767 12.9076C19.8538 12.907 19.631 12.9175 19.4092 12.9392C18.7757 12.6461 18.0855 12.4962 17.3875 12.5001Z" fill="#0857A0"/>
<defs>
<linearGradient id="paint0_linear_234_368" x1="4.5" y1="4.23938e-07" x2="20" y2="40" gradientUnits="userSpaceOnUse">
<stop stop-color="#F130BE"/>
<stop offset="1" stop-color="white"/>
</linearGradient>
</defs>
</svg>
