<svg width="40" height="40" viewBox="0 0 40 40" fill="none" xmlns="http://www.w3.org/2000/svg">
<circle cx="20" cy="20" r="20" fill="url(#paint0_linear_234_366)"/>
<path d="M25.7415 15.8435C26.4149 15.4307 26.8607 14.8657 27.079 14.1485C26.464 14.4809 25.8041 14.7226 25.1199 14.866C24.534 14.236 23.7924 13.916 22.9032 13.916C22.034 13.916 21.2999 14.221 20.7007 14.8143C20.4113 15.0961 20.1826 15.434 20.0284 15.8073C19.8742 16.1805 19.7978 16.5814 19.804 16.9852C19.804 17.2427 19.8365 17.4727 19.9015 17.6677C17.3382 17.5802 15.2165 16.5168 13.5449 14.4702C13.2615 14.971 13.1199 15.481 13.1199 16.0085C13.1199 17.0935 13.5768 17.9516 14.4907 18.5827C13.9699 18.5385 13.5107 18.4068 13.1199 18.191C13.1199 18.9652 13.3474 19.6118 13.8032 20.181C14.2458 20.7358 14.8699 21.1167 15.5657 21.2568C15.3046 21.323 15.0326 21.3557 14.7499 21.3552C14.4899 21.3557 14.3054 21.3327 14.1965 21.286C14.3882 21.9168 14.7499 22.4285 15.2724 22.8202C15.7888 23.2125 16.4172 23.4294 17.0657 23.4394C15.9557 24.3102 14.6865 24.741 13.2507 24.741C12.899 24.741 12.6499 24.736 12.499 24.7093C13.9132 25.6277 15.4874 26.0835 17.229 26.0835C19.0107 26.0835 20.5868 25.6319 21.9574 24.7285C23.3282 23.8302 24.3399 22.7218 24.9899 21.4168C25.6318 20.1538 25.9664 18.757 25.9665 17.3402V16.9502C26.5655 16.5083 27.0842 15.9668 27.4999 15.3493C26.9392 15.594 26.3475 15.7602 25.7415 15.8435Z" fill="#3E8EDA"/>
<defs>
<linearGradient id="paint0_linear_234_366" x1="4.5" y1="4.23938e-07" x2="20" y2="40" gradientUnits="userSpaceOnUse">
<stop stop-color="#79ACDC"/>
<stop offset="1" stop-color="white"/>
</linearGradient>
</defs>
</svg>
