<svg width="40" height="40" viewBox="0 0 40 40" fill="none" xmlns="http://www.w3.org/2000/svg">
<circle cx="20" cy="20" r="20" fill="url(#paint0_linear_234_367)"/>
<path fill-rule="evenodd" clip-rule="evenodd" d="M19.9997 12.9583C18.2531 12.9557 16.5672 13.5983 15.2656 14.7629C13.9641 15.9275 13.1386 17.5319 12.9479 19.268C12.7571 21.0041 13.2145 22.7494 14.2321 24.1688C15.2497 25.5883 16.7559 26.5817 18.4613 26.9583V22.6458H17.3013C17.0917 22.6456 16.8906 22.5622 16.7424 22.414C16.5941 22.2657 16.5107 22.0647 16.5105 21.855V20.4375C16.5107 20.2278 16.5941 20.0268 16.7424 19.8785C16.8906 19.7303 17.0917 19.6469 17.3013 19.6467H18.4455L18.4063 18.585V18.5683C18.4063 17.8342 18.533 16.4592 19.613 15.6867C19.9588 15.4392 20.2772 15.2808 20.6238 15.1883C20.9655 15.0967 21.3113 15.0758 21.6988 15.0758C22.3788 15.0758 22.8488 15.1433 23.1505 15.1867L23.2905 15.2067C23.5738 15.2433 23.7822 15.485 23.7822 15.7667V17.3358C23.7822 17.4129 23.7665 17.4892 23.736 17.56C23.7055 17.6308 23.6609 17.6946 23.6049 17.7476C23.5489 17.8006 23.4826 17.8416 23.4102 17.868C23.3378 17.8945 23.2608 17.906 23.1838 17.9017H23.183C23.0688 17.9067 22.6247 17.9242 22.243 17.9242C21.9563 17.9242 21.8122 17.99 21.7288 18.0783C21.6397 18.1742 21.538 18.385 21.538 18.8575V19.6467H22.8072C22.9216 19.6468 23.0347 19.6717 23.1386 19.7198C23.2425 19.7678 23.3347 19.8378 23.4089 19.925C23.4832 20.0121 23.5376 20.1143 23.5685 20.2245C23.5994 20.3347 23.6061 20.4503 23.588 20.5633L23.373 21.985C23.3421 22.1696 23.2468 22.3372 23.104 22.4582C22.9612 22.5792 22.7802 22.6456 22.593 22.6458H21.538V26.9575C23.2426 26.5801 24.7477 25.5864 25.7646 24.1673C26.7815 22.7481 27.2384 21.0034 27.0477 19.268C26.857 17.5325 26.0321 15.9287 24.7313 14.7642C23.4305 13.5997 21.7455 12.9566 19.9997 12.9583ZM12.083 20.0417C12.083 17.942 12.9171 15.9284 14.4017 14.4437C15.8864 12.9591 17.9 12.125 19.9997 12.125C22.0993 12.125 24.1129 12.9591 25.5976 14.4437C27.0823 15.9284 27.9163 17.942 27.9163 20.0417C27.9163 24.0117 24.9938 27.2992 21.183 27.8708C21.1237 27.8797 21.0632 27.8757 21.0056 27.859C20.948 27.8424 20.8946 27.8135 20.8492 27.7743C20.8038 27.7351 20.7674 27.6866 20.7424 27.6321C20.7175 27.5776 20.7046 27.5183 20.7047 27.4583V22.2292C20.7047 22.1187 20.7486 22.0127 20.8267 21.9345C20.9049 21.8564 21.0108 21.8125 21.1213 21.8125H22.5563L22.7572 20.48H21.1213C21.0108 20.48 20.9049 20.4361 20.8267 20.358C20.7486 20.2798 20.7047 20.1738 20.7047 20.0633V18.8583C20.7047 18.2942 20.8213 17.8292 21.1213 17.5092C21.4272 17.1825 21.8447 17.0917 22.243 17.0917C22.4872 17.0917 22.7605 17.0833 22.948 17.0775V16C22.5345 15.9384 22.1169 15.9081 21.6988 15.9092C21.3372 15.9092 21.0755 15.93 20.8388 15.9933C20.608 16.055 20.3797 16.1633 20.0972 16.3642C19.383 16.8758 19.2397 17.8475 19.2388 18.5617L19.2947 20.0483C19.2967 20.1043 19.2874 20.1601 19.2674 20.2124C19.2473 20.2647 19.217 20.3124 19.1781 20.3527C19.1392 20.393 19.0926 20.425 19.041 20.4469C18.9894 20.4688 18.934 20.48 18.878 20.48H17.3447V21.8125H18.878C18.9885 21.8125 19.0945 21.8564 19.1726 21.9345C19.2508 22.0127 19.2947 22.1187 19.2947 22.2292V27.4583C19.2947 27.5183 19.2819 27.5776 19.2569 27.6321C19.232 27.6866 19.1955 27.7351 19.1501 27.7743C19.1047 27.8135 19.0514 27.8424 18.9938 27.859C18.9362 27.8757 18.8756 27.8797 18.8163 27.8708C15.0055 27.2992 12.083 24.0125 12.083 20.0417Z" fill="#0857A0"/>
<defs>
<linearGradient id="paint0_linear_234_367" x1="4.5" y1="4.23938e-07" x2="20" y2="40" gradientUnits="userSpaceOnUse">
<stop stop-color="#7162A6"/>
<stop offset="1" stop-color="white"/>
</linearGradient>
</defs>
</svg>
