<svg width="36" height="36" viewBox="0 0 36 36" fill="none" xmlns="http://www.w3.org/2000/svg">
<g id="lsicon:user-like-filled">
<path id="Vector" fill-rule="evenodd" clip-rule="evenodd" d="M9.40874 11.5568C9.40874 10.7107 9.57539 9.87285 9.89919 9.09113C10.223 8.30941 10.6976 7.59912 11.2959 7.00081C11.8942 6.40251 12.6045 5.92791 13.3862 5.60411C14.1679 5.28031 15.0058 5.11365 15.8519 5.11365C16.698 5.11365 17.5359 5.28031 18.3176 5.60411C19.0993 5.92791 19.8096 6.40251 20.4079 7.00081C21.0062 7.59912 21.4808 8.30941 21.8046 9.09113C22.1284 9.87285 22.2951 10.7107 22.2951 11.5568C22.2951 13.2657 21.6163 14.9045 20.4079 16.1128C19.1996 17.3212 17.5608 18 15.8519 18C14.1431 18 12.5042 17.3212 11.2959 16.1128C10.0876 14.9045 9.40874 13.2657 9.40874 11.5568ZM30.7142 8.33524C31.1824 8.33524 31.6377 8.43833 32.0608 8.63592C32.4818 8.83351 32.8555 9.11916 33.1626 9.46924C33.779 10.1737 34.1076 11.0972 34.1076 12.0379C34.1076 12.9786 33.779 13.9021 33.1626 14.6045V14.6087L29.5458 18.7109C29.4451 18.8252 29.3211 18.9167 29.1823 18.9794C29.0434 19.0421 28.8928 19.0745 28.7404 19.0745C28.5881 19.0745 28.4375 19.0421 28.2986 18.9794C28.1597 18.9167 28.0358 18.8252 27.935 18.7109L24.314 14.6066L24.3097 14.6023C23.6967 13.8882 23.3619 12.9769 23.3668 12.0358C23.3668 11.0951 23.6954 10.1737 24.3118 9.46924C24.6189 9.11975 24.9937 8.83625 25.4136 8.63592C25.9487 8.38286 26.5441 8.28533 27.132 8.35444C27.7199 8.42356 28.2765 8.65654 28.7383 9.02681C28.933 8.8736 29.1442 8.74331 29.3719 8.63592C29.7928 8.43833 30.2481 8.33524 30.7142 8.33524ZM5.11328 30.8864V29.8125C5.11328 27.2493 6.13153 24.791 7.94403 22.9785C9.75652 21.166 12.2148 20.1477 14.7781 20.1477H16.9258C19.489 20.1477 21.9473 21.166 23.7598 22.9785C25.5723 24.791 26.5906 27.2493 26.5906 29.8125V30.8864H5.11328Z" fill="#09A271"/>
</g>
</svg>
