<svg width="40" height="40" viewBox="0 0 40 40" fill="none" xmlns="http://www.w3.org/2000/svg">
<path fill-rule="evenodd" clip-rule="evenodd" d="M19.7986 9.16665C18.2069 9.36165 16.6986 9.92665 16.0619 10.45C12.3486 13.52 10.2519 17.5783 9.16361 21.1166C8.69498 22.6156 8.38112 24.1587 8.22694 25.7216C8.17028 26.36 8.11861 27.0283 8.21528 27.6666C8.85361 28.39 9.75694 28.915 10.5953 29.365C12.3469 30.3066 14.9786 31.2833 18.5169 31.6766C20.5203 31.9 23.0503 32.0266 25.3836 31.84C27.8053 31.645 29.6619 31.1366 30.6253 30.365C32.2486 29.0666 32.6586 27.5516 32.5103 26.225C32.3519 24.7983 31.5503 23.5916 30.7436 23.0533C29.3519 22.1266 27.7853 22.0333 26.3086 22.42C24.7886 22.82 23.5403 23.6866 22.9503 24.3966C22.8023 24.5752 22.6186 24.721 22.411 24.8245C22.2035 24.928 21.9766 24.9871 21.7448 24.9979C21.5131 25.0088 21.2817 24.9711 21.0654 24.8874C20.8491 24.8036 20.6526 24.6757 20.4886 24.5116C19.5719 23.595 18.0136 23.3283 15.9253 24.72C15.6974 24.8721 15.4356 24.9657 15.163 24.9926C14.8903 25.0194 14.6153 24.9786 14.3621 24.8738C14.109 24.769 13.8856 24.6034 13.7117 24.3917C13.5379 24.18 13.4189 23.9286 13.3653 23.66C12.8886 21.27 13.1369 18.73 13.5769 16.635C14.0203 14.5366 14.6869 12.7316 15.1769 11.755C15.3155 11.4785 15.5283 11.246 15.7914 11.0836C16.0545 10.9211 16.3577 10.8351 16.6669 10.8351C16.9762 10.8351 17.2793 10.9211 17.5425 11.0836C17.8056 11.246 18.0184 11.4785 18.1569 11.755C18.4953 12.4283 19.1136 13.0316 19.8336 13.285C20.3919 12.9333 20.8769 12.4416 21.2703 11.9166C21.9936 10.9533 22.2353 10.0416 21.9136 9.23665C21.2603 9.00331 20.4703 9.08498 19.7986 9.16665ZM22.2703 5.89331C23.0769 6.04831 24.2553 6.45165 24.8236 7.58831C26.0686 10.0783 25.0403 12.445 23.9369 13.9166C23.2169 14.8766 22.2903 15.78 21.2119 16.3333C20.9869 16.45 20.5286 16.6666 20.0003 16.6666C19.0153 16.6666 18.0503 16.2183 17.2586 15.6583C17.1086 16.1683 16.9636 16.7283 16.8386 17.3216C16.5914 18.4601 16.4574 19.6202 16.4386 20.785C18.1936 20.2183 19.9886 20.2783 21.5353 21.1516C22.6977 20.2388 24.0345 19.5735 25.4636 19.1966C27.6303 18.6283 30.2303 18.7066 32.5919 20.28C34.2836 21.4083 35.5653 23.5333 35.8236 25.8583C36.0936 28.2816 35.2519 30.9316 32.7069 32.9683C30.9103 34.405 28.1719 34.96 25.6519 35.1616C23.0436 35.3716 20.2886 35.2283 18.1503 34.99C14.1869 34.55 11.1436 33.4433 9.01694 32.3016C7.62194 31.5516 5.71361 30.515 5.10861 28.9266C4.70028 27.85 4.80694 26.5433 4.90694 25.4233C5.04028 23.955 5.36694 22.1216 5.97861 20.135C7.19861 16.17 9.58694 11.4783 13.9386 7.88165C15.2769 6.77498 17.5169 6.08831 19.3919 5.85831C20.3586 5.73998 21.3753 5.72331 22.2703 5.89331Z" fill="white"/>
</svg>
